<svg xmlns="http://www.w3.org/2000/svg" width="1918.053" height="790.573" viewBox="0 0 1918.053 790.573"><g transform="translate(-57.756 -1185.38)"><path d="M1966.81,1928.99a13.675,13.675,0,1,1-17.86,7.42c0-.01,0-.01.01-.02A13.71,13.71,0,0,1,1966.81,1928.99Z" fill="none" stroke="#bcbcbc" stroke-miterlimit="10" stroke-width="1"/><path d="M1608.97,1904.1a13.674,13.674,0,1,1-17.88,7.42,13.674,13.674,0,0,1,17.88-7.42Z" fill="none" stroke="#bcbcbc" stroke-miterlimit="10" stroke-width="1"/><path d="M1598.01,1565.43a13.682,13.682,0,1,1-17.87,7.42v-.01a13.673,13.673,0,0,1,17.87-7.41Z" fill="none" stroke="#bcbcbc" stroke-miterlimit="10" stroke-width="1"/><path d="M1899.08,1522.19a13.682,13.682,0,1,1-17.87,7.42v-.01a13.68,13.68,0,0,1,17.87-7.41Z" fill="none" stroke="#bcbcbc" stroke-miterlimit="10" stroke-width="1"/><path d="M1551.27,1303.77a15.551,15.551,0,1,1-.07-.02A.143.143,0,0,1,1551.27,1303.77Z" fill="none" stroke="#bcbcbc" stroke-miterlimit="10" stroke-width="1"/><path d="M1483,1671.24a25.192,25.192,0,1,1-.03,0c.01-.01.02,0,.03,0Z" fill="none" stroke="#bcbcbc" stroke-miterlimit="10" stroke-width="1"/><path d="M1163.56,1791.91a14.167,14.167,0,1,0-7.69-18.51A14.163,14.163,0,0,0,1163.56,1791.91Z" fill="none" stroke="#bcbcbc" stroke-miterlimit="10" stroke-width="1"/><path d="M573.69,1573.34a13.677,13.677,0,1,1-17.87,7.41c0-.01,0-.01.01-.02A13.758,13.758,0,0,1,573.69,1573.34Z" fill="none" stroke="#bcbcbc" stroke-miterlimit="10" stroke-width="1"/><path d="M342.85,1949.08a13.682,13.682,0,1,1-17.87,7.42v-.01A13.725,13.725,0,0,1,342.85,1949.08Z" fill="none" stroke="#bcbcbc" stroke-miterlimit="10" stroke-width="1"/><path d="M77.2,1452.24a13.673,13.673,0,1,1-17.86,7.41v-.01A13.671,13.671,0,0,1,77.2,1452.24Z" fill="none" stroke="#bcbcbc" stroke-miterlimit="10" stroke-width="1"/><path d="M663.15,1320.61a13.689,13.689,0,1,1-17.88,7.42h0A13.683,13.683,0,0,1,663.15,1320.61Z" fill="none" stroke="#bcbcbc" stroke-miterlimit="10" stroke-width="1"/><path d="M262.65,1217.33a13.675,13.675,0,1,1-17.86,7.42h0A13.7,13.7,0,0,1,262.65,1217.33Z" fill="none" stroke="#bcbcbc" stroke-miterlimit="10" stroke-width="1"/><path d="M1095.12,1606.22a13.671,13.671,0,1,1-17.89,7.41A13.673,13.673,0,0,1,1095.12,1606.22Z" fill="none" stroke="#bcbcbc" stroke-miterlimit="10" stroke-width="1"/><path d="M337.63,1961.74l375.15-426.9-54.32-201.38L363.29,1714.69,197.47,1679.2l-89.23,225.17,255.05-189.68L254.33,1509.07,197.47,1679.2,71.97,1464.88l185.46-234.92L197.47,1679.2l140.16,282.54-229.39-57.37" fill="none" stroke="#bcbcbc" stroke-miterlimit="10" stroke-width="1"/><path d="M892.08,1463.14l-179.3,71.7-144.32,51.14-314.13-76.91" fill="none" stroke="#bcbcbc" stroke-miterlimit="10" stroke-width="1"/><path d="M257.43,1229.96l105.86,484.73-25.66,247.05-83.3-452.67,183.72-81.63L257.43,1229.96l401.03,103.5" fill="none" stroke="#bcbcbc" stroke-miterlimit="10" stroke-width="1"/><path d="M892.08,1463.14l197.83,155.71,79.04,159.96,81.96,174.71,22.25-414.73,319.64,39.28-13.18,198.26-101.86-92.48,6.61-191.09-211.21,46.03-104.21,240.02-247.78,80.3L568.46,1585.98" fill="none" stroke="#bcbcbc" stroke-miterlimit="10" stroke-width="1"/><path d="M363.29,1714.69l205.17-128.71L438.05,1427.44l274.73,107.4,208.39,324.27,168.74-240.26,183.25-80.06" fill="none" stroke="#bcbcbc" stroke-miterlimit="10" stroke-width="1"/><path d="M1273.16,1538.79l204.6,145.06-308.81,94.96" fill="none" stroke="#bcbcbc" stroke-miterlimit="10" stroke-width="1"/><line x2="377.13" y2="84.01" transform="translate(712.78 1534.84)" fill="none" stroke="#bcbcbc" stroke-miterlimit="10" stroke-width="1"/><line x1="29.09" y1="395.97" transform="translate(892.08 1463.14)" fill="none" stroke="#bcbcbc" stroke-miterlimit="10" stroke-width="1"/><line y1="283.16" x2="238.08" transform="translate(1484.37 1209.6)" fill="none" stroke="#bcbcbc" stroke-miterlimit="10" stroke-width="1"/><path d="M1477.76,1683.85l283.69,125.27-157.86,107.45-23.97-140.24,181.83,32.79,199.92,132.66-138.2-281.92-345.41,23.99" fill="none" stroke="#bcbcbc" stroke-miterlimit="10" stroke-width="1"/><path d="M1823.17,1659.86l-61.72,149.26L1592.8,1578.07l-46.76-261.68,176.41-106.79" fill="none" stroke="#bcbcbc" stroke-miterlimit="10" stroke-width="1"/><line y1="176.37" x2="61.67" transform="translate(1484.37 1316.39)" fill="none" stroke="#bcbcbc" stroke-miterlimit="10" stroke-width="1"/><path d="M1722.45,1209.47l12.85,210.7,158.56,114.67-301.06,43.23,142.5-157.9,212.61-155.18-225.46-55.52" fill="none" stroke="#bcbcbc" stroke-miterlimit="10" stroke-width="1"/><line x1="104.8" y2="234.8" transform="translate(438.05 1192.65)" fill="none" stroke="#bcbcbc" stroke-miterlimit="10" stroke-width="1"/><line y1="37.31" x2="285.42" transform="translate(257.43 1192.65)" fill="none" stroke="#bcbcbc" stroke-miterlimit="10" stroke-width="1"/><path d="M363.29,1714.69l218.86,202.04,116.06-107.61,14.57-274.28L582.15,1916.73" fill="none" stroke="#bcbcbc" stroke-miterlimit="10" stroke-width="1"/><path d="M1250.91,1953.52l155.17-89.37,71.76-180.28Z" fill="none" stroke="#bcbcbc" stroke-miterlimit="10" stroke-width="1"/><circle cx="7.27" cy="7.27" r="7.27" transform="translate(64.71 1457.59)" fill="#bcbcbc"/><circle cx="7.27" cy="7.27" r="7.27" transform="translate(250.16 1222.69)" fill="#bcbcbc"/><circle cx="5.73" cy="5.73" r="5.73" transform="translate(248.6 1503.34)" fill="#bcbcbc"/><circle cx="7.29" cy="7.29" r="7.29" transform="translate(705.49 1527.55)" fill="#bcbcbc"/><circle cx="5.04" cy="5.04" r="5.04" transform="translate(916.13 1854.06)" fill="#bcbcbc"/><circle cx="5.04" cy="5.04" r="5.04" transform="translate(1245.87 1948.48)" fill="#bcbcbc"/><circle cx="3.64" cy="3.64" r="3.64" transform="translate(1757.81 1805.48)" fill="#bcbcbc"/><circle cx="6.72" cy="6.72" r="6.72" transform="translate(1816.45 1653.14)" fill="#bcbcbc"/><circle cx="5.65" cy="5.65" r="5.65" transform="translate(1573.97 1770.68)" fill="#bcbcbc"/><circle cx="7.27" cy="7.27" r="7.27" transform="translate(1596.46 1909.47)" fill="#bcbcbc"/><circle cx="7.29" cy="7.29" r="7.29" transform="translate(651.17 1326.17)" fill="#bcbcbc"/><circle cx="7.29" cy="7.29" r="7.29" transform="translate(884.79 1455.84)" fill="#bcbcbc"/><circle cx="7.27" cy="7.27" r="7.27" transform="translate(1082.61 1611.58)" fill="#bcbcbc"/><circle cx="7.27" cy="7.27" r="7.27" transform="translate(1886.59 1527.57)" fill="#bcbcbc"/><circle cx="7.27" cy="7.27" r="7.27" transform="translate(1161.7 1771.54)" fill="#bcbcbc"/><circle cx="7.27" cy="7.27" r="7.27" transform="translate(1265.9 1531.52)" fill="#bcbcbc"/><circle cx="7.27" cy="7.27" r="7.27" transform="translate(1538.77 1309.12)" fill="#bcbcbc"/><circle cx="7.27" cy="7.27" r="7.27" transform="translate(1728.03 1412.9)" fill="#bcbcbc"/><circle cx="5.58" cy="5.58" r="5.58" transform="translate(1716.87 1203.89)" fill="#bcbcbc"/><circle cx="5.58" cy="5.58" r="5.58" transform="translate(1942.33 1259.41)" fill="#bcbcbc"/><circle cx="7.27" cy="7.27" r="7.27" transform="translate(1470.57 1676.6)" fill="#bcbcbc"/><circle cx="7.27" cy="7.27" r="7.27" transform="translate(1585.53 1570.8)" fill="#bcbcbc"/><circle cx="7.27" cy="7.27" r="7.27" transform="translate(1954.3 1934.37)" fill="#bcbcbc"/><circle cx="6.44" cy="6.44" r="6.44" transform="translate(1478.01 1486.34)" fill="#bcbcbc"/><circle cx="7.29" cy="7.29" r="7.29" transform="translate(561.19 1578.7)" fill="#bcbcbc"/><circle cx="7.27" cy="7.27" r="7.27" transform="translate(430.78 1420.18)" fill="#bcbcbc"/><circle cx="7.27" cy="7.27" r="7.27" transform="translate(535.58 1185.38)" fill="#bcbcbc"/><circle cx="7.27" cy="7.27" r="7.27" transform="translate(690.94 1801.85)" fill="#bcbcbc"/><circle cx="7.27" cy="7.27" r="7.27" transform="translate(1398.81 1856.88)" fill="#bcbcbc"/><circle cx="7.27" cy="7.27" r="7.27" transform="translate(574.88 1909.46)" fill="#bcbcbc"/><circle cx="4.89" cy="4.89" r="4.89" transform="translate(192.58 1674.31)" fill="#bcbcbc"/><circle cx="7.26" cy="7.26" r="7.26" transform="translate(356.03 1707.43)" fill="#bcbcbc"/><circle cx="7.26" cy="7.26" r="7.26" transform="translate(330.36 1954.48)" fill="#bcbcbc"/><circle cx="4.57" cy="4.57" r="4.57" transform="translate(103.66 1899.79)" fill="#bcbcbc"/></g></svg>